<svg width="160" height="36" viewBox="0 0 160 36" fill="none" xmlns="http://www.w3.org/2000/svg">
<g clip-path="url(#clip0_159_19296)">
<path d="M27.6003 0H5.19972C2.60414 0 0.5 2.09058 0.5 4.66945V26.2711C0.5 28.85 2.60414 30.9405 5.19972 30.9405H27.6003C30.1959 30.9405 32.3 28.85 32.3 26.2711V4.66945C32.3 2.09058 30.1959 0 27.6003 0Z" fill="#253863"/>
<path d="M13.1058 15.0959C13.1203 15.5687 13.2327 16.0335 13.436 16.4613C13.5627 16.7435 13.7319 17.0049 13.9379 17.2364C14.043 17.3634 14.1568 17.4829 14.2785 17.5942C14.4424 17.7301 14.6163 17.8536 14.7986 17.9637C14.9807 18.077 15.1726 18.1738 15.372 18.2531C15.5742 18.3233 15.781 18.3799 15.9909 18.4223C16.1325 18.4516 16.2657 18.512 16.3807 18.5992C16.4957 18.6864 16.5895 18.7981 16.6553 18.9261C16.7259 19.0573 16.7661 19.2025 16.7729 19.3511C16.7798 19.4997 16.7532 19.6479 16.695 19.785C16.6368 19.9221 16.5485 20.0445 16.4366 20.1433C16.3247 20.2421 16.1919 20.3148 16.0481 20.3562C15.8437 20.4066 15.6297 20.4039 15.4266 20.3484C14.6446 20.172 13.91 19.8302 13.273 19.3462C12.636 18.8622 12.1116 18.2475 11.7354 17.5439C11.5387 17.1776 11.3851 16.7901 11.2777 16.389C11.2205 16.1784 11.1906 15.9614 11.1477 15.7431C11.1052 15.4709 11.0874 15.1955 11.0944 14.9202C11.0944 13.2886 11.0944 11.6583 11.0944 10.0267C11.0987 9.89301 11.076 9.75977 11.0277 9.63489C10.9793 9.51001 10.9062 9.39604 10.8128 9.29969C10.7193 9.20335 10.6074 9.1266 10.4836 9.07397C10.3597 9.02134 10.2266 8.9939 10.0919 8.99328C9.39239 8.99328 8.69289 8.99328 7.99338 8.99328C7.82148 8.99564 7.65213 8.95189 7.50316 8.86663C7.3542 8.78138 7.23114 8.65777 7.14695 8.50885C7.02225 8.30767 6.97465 8.06861 7.01285 7.83541C7.05106 7.60222 7.17251 7.39049 7.35498 7.23899C7.48951 7.1203 7.65564 7.0427 7.83346 7.0155C7.84613 7.01168 7.85833 7.00648 7.86986 7H15.5163C15.5681 7.01373 15.6206 7.02451 15.6737 7.0323C15.8271 7.04651 15.9831 7.0478 16.1352 7.06847C16.3381 7.0943 16.5396 7.12918 16.7411 7.16665C16.9934 7.21315 17.2443 7.26224 17.4939 7.31908C17.6979 7.36545 17.8821 7.47432 18.0205 7.63032C18.1588 7.78632 18.2443 7.98157 18.265 8.18848C18.2865 8.39207 18.2448 8.59734 18.1456 8.77675C18.0464 8.95616 17.8943 9.10113 17.7098 9.19222C17.4617 9.30455 17.1805 9.32158 16.9205 9.24002C16.6638 9.1723 16.4033 9.11925 16.1404 9.08113C15.8818 9.04462 15.6214 9.0222 15.3603 9.01395C14.9429 8.99845 14.5256 8.99716 14.1082 8.99587C13.8791 8.99166 13.6562 9.07066 13.4815 9.21806C13.3732 9.30312 13.2838 9.40964 13.2192 9.53084C13.1545 9.65204 13.1159 9.78528 13.1058 9.9221C13.0986 9.94788 13.0938 9.97426 13.0915 10.0009V15.0171C13.0938 15.0437 13.0986 15.0701 13.1058 15.0959V15.0959Z" fill="#F16E5F"/>
<path d="M25 22.5406H24.9844C24.9844 22.3804 24.9844 22.2203 24.9844 22.0601C24.9844 20.3135 24.9844 18.5678 24.9844 16.823H25V22.5406Z" fill="#C7CCD7"/>
<path d="M24.9843 16.823C24.9843 18.5687 24.9843 20.3144 24.9843 22.0601C24.9843 22.2203 24.9843 22.3804 24.9843 22.5406C24.9815 22.841 24.9077 23.1365 24.7688 23.4034C24.6299 23.6702 24.4298 23.9008 24.1847 24.0766C23.919 24.2828 23.6015 24.4128 23.2667 24.4525C23.1517 24.4689 23.0358 24.4788 22.9196 24.4822C20.6425 24.4822 18.3654 24.4822 16.0883 24.4822C15.8283 24.4822 15.5774 24.4706 15.3238 24.4487C14.9033 24.4127 14.4858 24.3479 14.0743 24.2549C13.4722 24.1184 12.8858 23.921 12.3243 23.6658C11.7281 23.3968 11.1649 23.0609 10.6457 22.6646C10.3948 22.4735 10.1581 22.2642 9.92408 22.0536C9.74726 21.8947 9.57823 21.7255 9.41571 21.5511C9.07885 21.1851 8.77434 20.7909 8.50557 20.373C8.06907 19.7041 7.72656 18.9791 7.48751 18.2182C7.416 17.9908 7.35749 17.7596 7.29638 17.5271C7.24957 17.3385 7.21447 17.1395 7.18196 16.9535C7.15336 16.7856 7.13126 16.6163 7.11305 16.4458C7.09485 16.2753 7.08445 16.1409 7.07925 15.9872C7.07925 15.787 7.07925 15.5868 7.07925 15.3852V12.0265C7.07113 11.8257 7.1286 11.6276 7.24307 11.462C7.31812 11.3499 7.41628 11.255 7.53105 11.1835C7.64582 11.112 7.77457 11.0656 7.90877 11.0473C8.05051 11.0209 8.19635 11.0256 8.33605 11.0612C8.47575 11.0967 8.60593 11.1622 8.71744 11.2531C8.82895 11.3439 8.9191 11.4579 8.98155 11.5871C9.044 11.7162 9.07725 11.8574 9.07895 12.0007C9.07895 13.1775 9.07895 14.3544 9.07895 15.5312C9.0829 15.7791 9.09983 16.0266 9.12966 16.2727C9.15827 16.522 9.19467 16.7726 9.24668 17.0194C9.32935 17.3983 9.44552 17.7692 9.59383 18.1278C9.78021 18.5882 10.0174 19.0267 10.3011 19.4351C10.3935 19.5643 10.4923 19.7012 10.5937 19.8226C10.6951 19.9441 10.7835 20.041 10.8732 20.1533C10.9853 20.2815 11.1042 20.4035 11.2295 20.5189C11.3089 20.6086 11.3936 20.6936 11.483 20.7734C11.6429 20.9026 11.8107 21.0318 11.9771 21.1468C12.4569 21.4962 12.9817 21.7804 13.5373 21.9916C13.6674 22.042 13.7974 22.0872 13.9274 22.1324C14.0574 22.1776 14.1575 22.2177 14.2759 22.2461C14.4189 22.2823 14.5658 22.3068 14.7114 22.3327C14.857 22.3585 15.0079 22.3727 15.1535 22.405C15.2494 22.4269 15.3476 22.4373 15.446 22.436C15.4766 22.4383 15.5067 22.4444 15.5357 22.4541C15.5566 22.4605 15.5779 22.4653 15.5995 22.4683H15.8712C15.8966 22.4759 15.9228 22.4811 15.9492 22.4838H21.0265C21.0524 22.4805 21.078 22.4753 21.1032 22.4683C21.327 22.4536 21.5468 22.4016 21.7533 22.3146C22.0124 22.2056 22.2458 22.0441 22.4385 21.8405C22.6453 21.6272 22.7982 21.3682 22.8845 21.0847C22.9207 20.9683 22.9511 20.8502 22.9755 20.7308C22.9848 20.6614 22.9883 20.5914 22.9859 20.5215C22.9932 20.4962 22.9979 20.4702 23.0002 20.444V16.9522C22.9979 16.9264 22.9932 16.9009 22.9859 16.876C22.9859 16.7688 22.9664 16.6615 22.969 16.5543C22.9686 16.4198 22.9577 16.2855 22.9365 16.1526C22.9183 16.0027 22.9131 15.8503 22.8897 15.7004C22.8663 15.5506 22.8325 15.3969 22.7987 15.2457C22.6771 14.7132 22.5029 14.194 22.2786 13.6955C22.0184 13.1219 21.6911 12.5808 21.3034 12.0833C21.1643 11.9025 21.007 11.7345 20.8549 11.5666C20.5157 11.1965 20.1392 10.8619 19.7315 10.568C19.5287 10.4173 19.3941 10.193 19.357 9.94407C19.3388 9.84325 19.3388 9.74001 19.357 9.6392C19.3756 9.51509 19.4129 9.39446 19.4675 9.28136C19.5307 9.16519 19.6168 9.06287 19.7207 8.98052C19.8246 8.89817 19.9441 8.83748 20.0721 8.8021C20.151 8.78412 20.2319 8.77716 20.3127 8.78143C20.4081 8.77308 20.5043 8.77699 20.5987 8.79305C20.7443 8.834 20.8803 8.90291 20.9992 8.99587C21.1292 9.09017 21.2501 9.18319 21.3684 9.28395C21.4868 9.38471 21.5817 9.48289 21.6909 9.58107C21.7195 9.6069 21.7611 9.62111 21.7884 9.64953C21.8612 9.72058 21.9262 9.79938 21.999 9.87173C22.0966 9.96861 22.2045 10.0565 22.2994 10.1572C22.4177 10.2864 22.5282 10.4156 22.6387 10.5448C22.8039 10.7463 22.9742 10.9452 23.1289 11.1558C23.4725 11.6257 23.7711 12.1266 24.0208 12.6517C24.2342 13.0981 24.4137 13.5597 24.5578 14.0327C24.6781 14.4259 24.7754 14.8258 24.8491 15.2302C24.8894 15.4511 24.9076 15.6759 24.9375 15.8994C24.9752 16.2058 24.9908 16.5144 24.9843 16.823V16.823Z" fill="#AEDBCA"/>
<path d="M20.7873 19.5979C20.7741 19.7429 20.7268 19.8828 20.6494 20.0064C20.5719 20.13 20.4664 20.2338 20.3414 20.3097C20.1429 20.4377 19.9053 20.492 19.6705 20.4629C19.4357 20.4338 19.2188 20.3233 19.0581 20.1508C18.9229 20.0031 18.8327 19.8203 18.798 19.6237C18.7928 19.5678 18.7928 19.5116 18.798 19.4558C18.798 19.076 18.798 18.6975 18.798 18.3177C18.8085 18.0442 18.7355 17.774 18.5887 17.5426C18.4025 17.2736 18.1259 17.0794 17.8086 16.9948C17.7306 16.9703 17.6499 16.9522 17.5693 16.9315C17.4393 16.9024 17.3249 16.8258 17.2489 16.717C17.1728 16.6082 17.1406 16.475 17.1585 16.3438C17.1667 16.2647 17.1931 16.1887 17.2358 16.1215C17.2784 16.0542 17.336 15.9977 17.4042 15.9562C17.5338 15.8719 17.6556 15.7764 17.7683 15.6707C17.9005 15.5459 17.9996 15.3906 18.0569 15.2186C18.0896 15.1025 18.114 14.9842 18.1297 14.8646C18.1317 14.8124 18.1261 14.7602 18.1128 14.7096C18.0744 14.4439 17.9556 14.1962 17.7722 13.9991C17.4456 13.6534 17.0383 13.393 16.5864 13.2408C16.4254 13.1847 16.2613 13.1377 16.0949 13.1C15.8712 13.049 15.6417 13.0269 15.4123 13.0341C15.2664 13.0417 15.1206 13.0183 14.9845 12.9655C14.8484 12.9127 14.7252 12.8317 14.6231 12.728C14.5209 12.6171 14.4429 12.4864 14.3942 12.3441C14.3454 12.2018 14.3268 12.051 14.3396 11.9012C14.367 11.7261 14.4393 11.5609 14.5495 11.4215C14.6597 11.2822 14.8042 11.1733 14.9689 11.1054C15.0608 11.0695 15.1577 11.0481 15.2563 11.0421C15.4122 11.0331 15.5685 11.0331 15.7243 11.0421C15.8817 11.0512 16.039 11.0757 16.1963 11.0886C16.504 11.1187 16.8085 11.1749 17.1065 11.2566C17.3887 11.3248 17.6635 11.4205 17.9269 11.5421C18.1401 11.6454 18.3585 11.7423 18.5627 11.8637C18.7287 11.9708 18.8885 12.0873 19.0412 12.2125C19.1281 12.2752 19.2094 12.3452 19.2843 12.4218C19.4116 12.5572 19.5319 12.699 19.6444 12.8468C19.9219 13.2335 20.1041 13.6795 20.1762 14.149C20.2193 14.3911 20.2306 14.6377 20.21 14.8827C20.1893 15.1292 20.125 15.3702 20.0202 15.5945C19.9591 15.7363 19.9427 15.8932 19.9731 16.0445C20.0035 16.1957 20.0793 16.3343 20.1905 16.4419C20.2607 16.504 20.3296 16.5711 20.396 16.6331C20.6299 16.85 20.7698 17.1488 20.786 17.4664C20.7891 17.4907 20.7934 17.5148 20.799 17.5387C20.7928 17.5559 20.7885 17.5736 20.786 17.5917C20.7869 18.26 20.7873 18.9287 20.7873 19.5979Z" fill="#FECE5B"/>
<path d="M21.102 22.4748C21.0768 22.4818 21.0512 22.487 21.0253 22.4903H15.948C15.9216 22.4876 15.8954 22.4824 15.87 22.4748H21.102V22.4748Z" fill="#5B6989"/>
<path d="M13.1057 15.0959C13.0986 15.0701 13.0938 15.0437 13.0914 15.0171V10.0061C13.0938 9.97943 13.0986 9.95306 13.1057 9.92728C13.1057 9.95053 13.1057 9.97249 13.1057 9.99445V15.0326C13.1083 15.0506 13.1057 15.0726 13.1057 15.0959Z" fill="#5B6989"/>
<path d="M22.9782 16.876C22.9855 16.9009 22.9902 16.9264 22.9925 16.9522V20.4505C22.9903 20.4767 22.9855 20.5027 22.9782 20.528C22.9782 19.9027 22.9782 19.2775 22.9782 18.6522C22.9773 18.0597 22.9773 17.4676 22.9782 16.876Z" fill="#5B6989"/>
<path d="M20.7874 19.5979C20.7874 18.9287 20.7874 18.26 20.7874 17.5917C20.7898 17.5736 20.7942 17.5558 20.8004 17.5387C20.8004 17.9779 20.8004 18.4171 20.8004 18.8563C20.8004 19.0721 20.8004 19.2865 20.8004 19.5023C20.7987 19.5344 20.7943 19.5664 20.7874 19.5979V19.5979Z" fill="#5C698A"/>
</g>
<g clip-path="url(#clip1_159_19296)">
<path d="M83.9758 0C84.091 0.170706 84.2833 0.237092 84.4538 0.296365C87.0623 1.27556 88.0643 4.08984 87.0577 6.70615C86.7548 7.49093 86.2285 8.08958 85.5962 8.62186C85.0066 9.11738 84.9697 9.59394 85.3486 10.2673C85.6354 10.7747 85.9244 11.282 86.2078 11.7906C86.5302 12.3667 86.4058 12.9286 85.8922 13.2582C85.2818 13.6506 84.8154 13.4431 84.4802 12.9334C83.9701 12.1557 83.4852 11.3567 83.043 10.5364C82.4948 9.52162 82.0341 9.26675 80.9481 9.49554C80.6026 9.56785 80.3158 9.96973 80.3077 10.4226C80.2974 11.0153 80.3077 11.608 80.3077 12.2008C80.2962 12.9761 79.8735 13.4076 79.1388 13.4159C78.5572 13.423 78.1161 12.899 78.1161 12.196C78.1161 8.66098 78.138 5.12594 78.0954 1.59089C78.0873 0.889097 78.4213 0.462331 78.799 0.00118662L83.9758 0ZM80.3043 4.71458C80.3043 5.2267 80.3043 5.73882 80.3043 6.25568C80.3123 7.04283 80.6187 7.3629 81.3684 7.37238C81.9235 7.3795 82.4844 7.33208 83.0314 7.40202C83.27 7.44617 83.5161 7.40957 83.7328 7.2977C84.7163 6.78084 85.2 5.92257 85.3555 4.82483C85.4039 4.48223 85.1701 4.23803 85.1252 3.92862C84.9893 3.05731 84.2246 2.31758 83.3977 2.12672C82.732 1.97379 82.0686 2.03899 81.4041 2.0307C80.7396 2.0224 80.3204 2.47761 80.3112 3.18296C80.2997 3.69034 80.3043 4.20246 80.3043 4.71458Z" fill="#FECE5B"/>
<path d="M117.144 13.7514C117.068 13.4147 116.791 13.621 116.62 13.5688C115.169 13.1302 114.295 12.1462 113.923 10.6585C113.75 9.94511 113.696 9.20689 113.762 8.47486C113.831 7.66353 114.099 6.88358 114.541 6.20826C115.002 5.47209 115.678 4.88291 116.508 4.65767C117.836 4.30204 119.146 4.32338 120.241 5.37488C120.471 5.59775 120.471 5.59893 120.626 5.29664C120.812 4.9327 121.47 4.64108 121.873 4.74422C122.093 4.81113 122.286 4.94693 122.427 5.13266C122.568 5.3184 122.65 5.54481 122.66 5.78031C122.664 7.91414 122.664 10.048 122.66 12.1818C122.66 12.6797 122.501 13.0827 122.02 13.3258C121.41 13.6352 120.797 13.3625 120.682 12.6595C120.652 12.4782 120.583 12.4224 120.496 12.541C119.928 13.2724 119.036 13.3708 118.297 13.7573L117.144 13.7514ZM118.132 6.28294C117.295 6.24027 116.635 6.59354 116.161 7.34986C115.541 8.34565 115.612 9.36515 115.986 10.419C116.303 11.3235 116.976 11.7301 117.828 11.825C118.681 11.9198 119.541 11.8119 120.112 11.0046C120.446 10.5305 120.559 9.99937 120.672 9.41612C120.804 8.72737 120.638 8.13819 120.401 7.61778C119.988 6.7109 119.179 6.26042 118.132 6.28294Z" fill="#FECE5B"/>
<path d="M138.45 13.7513C138.417 13.7039 138.388 13.6198 138.351 13.6162C136.649 13.4099 135.693 12.3738 135.16 10.7521C134.922 10.0282 134.837 9.26022 134.911 8.49976C134.985 7.55453 135.341 6.65584 135.929 5.92612C136.726 4.97775 137.758 4.52964 138.996 4.47985C140.008 4.43836 140.853 4.71695 141.539 5.47327C141.745 5.70206 141.82 5.62264 141.924 5.38317C142.154 4.83905 142.58 4.63396 143.137 4.73947C143.483 4.80585 143.898 5.27056 143.887 5.84432C143.848 7.97815 143.873 10.112 143.871 12.2458C143.871 12.9571 143.584 13.3424 142.969 13.4941C142.601 13.5854 142.199 13.2973 141.924 12.7473C141.866 12.6287 141.848 12.3312 141.654 12.56C141.101 13.2155 140.284 13.3507 139.602 13.7454L138.45 13.7513ZM136.966 9.37581C136.989 9.86422 137.113 10.7533 137.851 11.3413C138.657 11.9874 139.595 12.0289 140.531 11.6507C141.586 11.2251 141.827 10.2282 142.008 9.23711C142.111 8.66216 141.879 8.11922 141.648 7.60947C141.073 6.31732 139.449 5.99606 138.469 6.43231C137.442 6.88753 136.932 7.78492 136.966 9.37581Z" fill="#FECE5B"/>
<path d="M48.274 -3.8147e-06C48.369 0.122208 48.4709 0.238583 48.5792 0.348522C48.9247 0.670968 49.0778 1.0349 48.8556 1.50079C48.7725 1.68871 48.6379 1.84752 48.4682 1.95768C48.2986 2.06783 48.1014 2.12453 47.9008 2.12079C47.3641 2.13738 46.8263 2.12079 46.2885 2.12671C45.4915 2.13383 45.1771 2.45272 45.176 3.26713C45.176 6.22841 45.176 9.19206 45.176 12.1581C45.176 12.6904 45.0251 13.091 44.5091 13.3293C43.7433 13.685 42.9786 13.2214 42.9763 12.3478C42.9693 9.40544 42.9763 6.46313 42.9763 3.51963C42.9763 2.42545 42.6872 2.13264 41.6081 2.13027C41.2627 2.11422 40.9167 2.11659 40.5716 2.13738C39.9508 2.20258 39.5005 1.95956 39.1769 1.42611V0.714829L39.9831 0.00355242L48.274 -3.8147e-06Z" fill="#FECE5B"/>
<path d="M52.3048 13.7514C51.8787 13.4858 51.3685 13.5143 50.9135 13.3009C49.7734 12.7698 49.0432 11.8487 48.6724 10.6929C48.4628 10.0409 48.2348 9.31417 48.3925 8.58156C48.7829 6.76425 49.5672 5.16624 51.4399 4.6802C53.757 4.07917 55.9798 4.53439 57.1464 7.15663C57.6658 8.32194 57.6244 9.55008 57.2155 10.764C56.65 12.4473 55.4523 13.3068 53.8019 13.5961C53.7532 13.5966 53.7056 13.6115 53.6647 13.6391C53.6239 13.6666 53.5916 13.7055 53.5716 13.7514H52.3048ZM52.929 11.8546C53.9655 11.8973 54.698 11.4018 55.1724 10.5814C55.5629 9.90453 55.5537 9.08182 55.4028 8.34091C55.0642 6.62436 53.7628 6.13121 52.3301 6.34578C51.9892 6.39052 51.6688 6.53772 51.4088 6.76898C50.659 7.42928 50.4229 8.27689 50.4644 9.23356C50.5381 10.6786 51.3339 11.9257 52.929 11.8546Z" fill="#FECE5B"/>
<path d="M71.0771 13.7514C71.0653 13.7039 71.04 13.6611 71.0046 13.6284C70.9691 13.5957 70.925 13.5745 70.8779 13.5676C69.5339 13.4076 68.5814 12.6987 67.9423 11.467C67.5346 10.681 67.2386 9.85118 67.2996 8.99172C67.4286 7.15189 68.1403 5.61079 69.9162 4.86513C71.456 4.21906 72.9981 4.26411 74.4319 5.17928C76.095 6.24027 76.7618 8.42982 76.2067 10.4546C75.693 12.3288 74.4239 13.2238 72.701 13.6328C72.6088 13.6553 72.5086 13.6423 72.4591 13.7514H71.0771ZM69.3588 9.02136C69.3243 9.25845 69.4106 9.53704 69.459 9.82629C69.6283 10.8245 70.1281 11.531 71.1036 11.7811C72.2656 12.0799 73.2918 11.6626 73.9575 10.777C74.5333 10.0171 74.4342 9.12805 74.2788 8.35394C73.9482 6.70734 72.9302 6.17388 71.2706 6.33273C71.0195 6.35644 70.7339 6.39675 70.5208 6.57812C69.7964 7.19456 69.3496 7.96037 69.3588 9.02136Z" fill="#FECE5B"/>
<path d="M154.343 12.6844C154.089 13.2155 153.537 13.6138 153.162 13.4905C152.893 13.4086 152.659 13.2347 152.5 12.9976C152.34 12.7604 152.264 12.4743 152.284 12.1865C152.35 10.9086 152.258 9.62832 152.335 8.34565C152.361 7.89162 152.171 7.3629 151.932 6.9148C151.866 6.78373 151.775 6.66777 151.665 6.57401C151.554 6.48026 151.426 6.41066 151.289 6.36948C149.853 5.90715 148.633 6.37897 148.498 8.11922C148.392 9.49317 148.467 10.8825 148.463 12.2683C148.463 12.7319 148.323 13.0851 147.87 13.2997C147.114 13.6553 146.43 13.276 146.407 12.4153C146.383 11.4871 146.407 10.5577 146.407 9.6295C146.407 8.38556 146.407 7.14122 146.407 5.89648C146.407 5.46853 146.789 4.80824 147.098 4.69325C147.509 4.54032 147.991 4.72051 148.328 5.27293C148.517 5.58352 148.687 5.5527 148.838 5.35236C149.218 4.84617 149.76 4.65886 150.313 4.57825C151.58 4.39095 152.831 4.38502 153.751 5.58115C154.03 5.94391 154.041 6.42639 154.349 6.7595L154.343 12.6844Z" fill="#FECE5B"/>
<path d="M91.2315 13.7514C90.8376 13.5724 90.4356 13.4088 90.0521 13.2108C89.2379 12.7911 88.8889 11.9601 88.7623 11.1599C88.6633 10.4933 88.6309 9.81805 88.6655 9.14466C88.7173 8.04218 88.6839 6.93377 88.6782 5.82536C88.6782 5.04177 89.1158 4.69799 89.694 4.73236C90.3297 4.76911 90.7305 5.17692 90.7385 5.8633C90.7512 7.32379 90.7719 8.78428 90.7719 10.2495C90.7719 11.8096 92.0825 12.2245 93.1052 11.8534C94.0116 11.5239 94.4872 10.8316 94.4711 9.85593C94.4561 8.47368 94.4619 7.09144 94.4711 5.70682C94.4711 5.16388 94.9191 4.75252 95.4846 4.74066C96.0178 4.72999 96.5211 5.15676 96.5269 5.6677C96.5368 7.91928 96.5368 10.1717 96.5269 12.4248C96.5269 12.9618 96.1146 13.4052 95.5859 13.5131C95.2404 13.583 94.6381 13.1574 94.4815 12.7259C94.4435 12.6192 94.5368 12.3134 94.2984 12.5979C93.7836 13.212 93.0903 13.4906 92.3854 13.7585L91.2315 13.7514Z" fill="#FECE5B"/>
<path d="M99.0628 9.0676C99.0628 8.00068 99.0628 6.93377 99.0628 5.86685C99.0628 5.4223 99.4843 4.7537 99.7941 4.68139C100.229 4.5747 100.793 4.89003 101.025 5.41638C101.132 5.65347 101.216 5.68785 101.371 5.48988C102.254 4.3874 103.399 4.32456 104.631 4.62804C104.927 4.70101 105.201 4.84892 105.428 5.05837C105.951 5.53255 106.177 5.58472 106.738 5.19707C107.417 4.72286 108.22 4.4727 109.041 4.47986C110.092 4.46801 111.256 5.1461 111.61 6.15255C111.775 6.59203 111.861 7.05805 111.867 7.52887C111.857 9.10909 111.867 10.6881 111.867 12.2707C111.867 12.9915 111.444 13.4929 110.831 13.5131C110.36 13.5297 109.815 12.9369 109.81 12.3205C109.798 10.8007 109.806 9.28098 109.834 7.76122C109.845 7.20523 109.333 6.42283 108.807 6.29599C107.447 5.96524 106.594 6.62199 106.559 8.06588C106.526 9.42679 106.528 10.7924 106.527 12.151C106.527 12.7698 106.287 13.1906 105.71 13.4147C105.197 13.615 104.674 13.2961 104.559 12.7176C104.354 11.7017 104.508 10.6786 104.464 9.66033C104.434 9.14709 104.434 8.63246 104.464 8.11923C104.502 7.61778 104.298 7.20524 104.075 6.80811C103.888 6.47499 103.576 6.31022 103.173 6.27584C101.785 6.15729 101.227 6.58287 101.135 8.25911C101.063 9.57853 101.119 10.9039 101.119 12.2269C101.119 12.6927 100.984 13.0638 100.543 13.2938C99.7815 13.6885 99.0732 13.2795 99.0571 12.3881C99.0432 11.2797 99.0628 10.1736 99.0628 9.0676Z" fill="#FECE5B"/>
<path d="M125.186 6.9148C125.186 5.19588 125.186 3.47775 125.186 1.76041C125.178 1.52547 125.213 1.29106 125.289 1.06928C125.543 0.375789 125.72 0.251315 126.451 0.350894C126.838 0.403054 127.232 0.877238 127.247 1.37276C127.267 2.10301 127.282 2.83562 127.247 3.5635C127.199 4.51186 127.714 4.90781 128.69 4.66479C129.717 4.40991 130.74 4.33523 131.72 4.87935C132.51 5.31798 132.927 6.03993 133.032 6.9065C133.245 8.67046 133.127 10.4487 133.134 12.2209C133.134 12.6595 133.01 13.0579 132.571 13.2878C131.802 13.6956 131.1 13.295 131.084 12.3904C131.064 11.2643 131.099 10.1381 131.07 9.01307C131.056 8.4725 131.062 7.92481 130.901 7.39135C130.705 6.74764 130.139 6.19285 129.385 6.26753C128.781 6.32681 128.175 6.21182 127.726 6.8247C127.412 7.24772 127.247 7.76747 127.257 8.29942C127.252 9.58367 127.252 10.8675 127.257 12.151C127.257 12.6833 127.089 13.0993 126.588 13.3424C125.966 13.6423 125.387 13.3424 125.232 12.6512C125.197 12.4587 125.183 12.2626 125.19 12.0668C125.186 10.3495 125.185 8.63214 125.186 6.9148Z" fill="#FECE5B"/>
<path d="M59.3542 6.84723V1.40003C59.3522 1.18284 59.413 0.969951 59.5289 0.788421C59.6448 0.606891 59.8104 0.464915 60.0049 0.380535C60.4022 0.181378 60.9608 0.386465 61.2521 0.712467C61.4329 0.913995 61.418 1.1416 61.418 1.37514C61.418 2.87672 61.418 4.3783 61.418 5.87989C61.418 6.27939 61.5331 6.60658 61.9293 6.7844C62.2691 6.93851 62.6457 6.9883 62.8864 6.71446C63.195 6.35882 63.5935 6.08972 63.8077 5.64754C64.0565 5.12357 64.744 4.69917 65.1701 4.74422C65.3428 4.75446 65.5089 4.81586 65.6485 4.92102C65.788 5.02618 65.8951 5.17062 65.9567 5.33695C66.1099 5.71393 65.9729 6.02807 65.7333 6.30902C65.1955 6.94088 64.6496 7.56561 64.1118 8.19865C63.7225 8.65742 63.7098 9.21933 64.0795 9.68285C64.6473 10.3941 65.2162 11.1054 65.7967 11.8084C66.217 12.3158 66.2343 12.7911 65.822 13.2072C65.4097 13.6233 64.8004 13.6541 64.387 13.2238C63.9989 12.8196 63.6741 12.3525 63.3125 11.9198C63.1029 11.6709 62.9336 11.3591 62.5869 11.2808C61.919 11.1291 61.4283 11.5286 61.4249 12.266C61.4249 12.7615 61.2971 13.174 60.8491 13.3898C60.0728 13.762 59.3657 13.2179 59.3599 12.2423C59.3473 10.438 59.3542 8.64202 59.3542 6.84723Z" fill="#FECE5B"/>
</g>
<path d="M39.3269 28.0324L43.6448 18.3377H44.8275L49.1591 28.0324H47.7015L46.6839 25.6672H41.7747L40.7708 28.0324H39.3269ZM44.2224 19.9191L42.2835 24.5121H46.2026L44.2499 19.9191H44.2224ZM52.9056 28.1562C52.3189 28.1562 51.8009 28.0187 51.3517 27.7437C50.9117 27.4595 50.5679 27.0561 50.3204 26.5335C50.0729 26.011 49.9491 25.3922 49.9491 24.6771C49.9491 23.962 50.0729 23.3478 50.3204 22.8344C50.5679 22.3119 50.9117 21.9085 51.3517 21.6243C51.7918 21.3401 52.3097 21.198 52.9056 21.198C53.4098 21.198 53.8591 21.308 54.2533 21.528C54.6475 21.7481 54.9408 22.046 55.1334 22.4219V18.3377H56.5222V28.0324H55.1609V26.8636C54.9683 27.2669 54.6704 27.5832 54.267 27.8124C53.8728 28.0416 53.419 28.1562 52.9056 28.1562ZM53.2632 27.0836C53.8316 27.0836 54.2899 26.8773 54.6383 26.4648C54.9867 26.0522 55.1609 25.4563 55.1609 24.6771C55.1609 23.8979 54.9867 23.3066 54.6383 22.9032C54.2899 22.4906 53.8316 22.2844 53.2632 22.2844C52.6856 22.2844 52.2226 22.4906 51.8743 22.9032C51.5259 23.3066 51.3517 23.8979 51.3517 24.6771C51.3517 25.4563 51.5259 26.0522 51.8743 26.4648C52.2226 26.8773 52.6856 27.0836 53.2632 27.0836ZM58.6375 28.0324V21.3218H59.9851V22.4081C60.1868 22.0231 60.4664 21.7251 60.8239 21.5143C61.1815 21.3034 61.5986 21.198 62.0753 21.198C63.1021 21.198 63.7667 21.6472 64.0693 22.5456C64.2801 22.1239 64.5826 21.7939 64.9768 21.5555C65.3711 21.3172 65.8203 21.198 66.3245 21.198C67.828 21.198 68.5797 22.0964 68.5797 23.8933V28.0324H67.1908V23.962C67.1908 23.3936 67.09 22.9765 66.8883 22.7107C66.6958 22.4448 66.3749 22.3119 65.9257 22.3119C65.4215 22.3119 65.0227 22.4906 64.7293 22.8482C64.436 23.1965 64.2893 23.6733 64.2893 24.2783V28.0324H62.9004V23.962C62.9004 23.3936 62.8041 22.9765 62.6116 22.7107C62.4191 22.4448 62.0982 22.3119 61.649 22.3119C61.1448 22.3119 60.746 22.4906 60.4527 22.8482C60.1685 23.1965 60.0264 23.6733 60.0264 24.2783V28.0324H58.6375ZM70.5353 19.7679V18.324H72.158V19.7679H70.5353ZM70.6591 28.0324V21.3218H72.0479V28.0324H70.6591ZM74.1404 28.0324V21.3218H75.488V22.4356C75.7172 22.0323 76.0289 21.7251 76.4231 21.5143C76.8265 21.3034 77.2757 21.198 77.7708 21.198C79.3567 21.198 80.1497 22.0964 80.1497 23.8933V28.0324H78.7609V23.9758C78.7609 23.3982 78.6463 22.9765 78.4171 22.7107C78.197 22.4448 77.8487 22.3119 77.372 22.3119C76.8127 22.3119 76.3635 22.4906 76.0243 22.8482C75.6943 23.1965 75.5293 23.6595 75.5293 24.2371V28.0324H74.1404ZM86.1023 28.0324V18.3377H89.5263C91.1215 18.3377 92.3499 18.7549 93.2117 19.5891C94.0826 20.4234 94.5181 21.6197 94.5181 23.1782C94.5181 24.7367 94.0826 25.9376 93.2117 26.7811C92.3499 27.6153 91.1215 28.0324 89.5263 28.0324H86.1023ZM87.5324 26.8361H89.4438C91.8366 26.8361 93.0329 25.6168 93.0329 23.1782C93.0329 20.7488 91.8366 19.5341 89.4438 19.5341H87.5324V26.8361ZM98.5607 28.1562C98.0931 28.1562 97.676 28.0645 97.3093 27.8812C96.9426 27.6978 96.6492 27.4503 96.4292 27.1386C96.2183 26.8269 96.1129 26.4739 96.1129 26.0797C96.1129 25.5847 96.2367 25.1951 96.4842 24.9109C96.7409 24.6267 97.158 24.4204 97.7356 24.2921C98.3223 24.1637 99.1107 24.0995 100.101 24.0995H100.568V23.742C100.568 23.2195 100.458 22.8436 100.238 22.6144C100.018 22.3852 99.6562 22.2706 99.152 22.2706C98.7669 22.2706 98.3819 22.3302 97.9968 22.4494C97.6118 22.5594 97.2176 22.7382 96.8142 22.9857L96.3879 22.0093C96.7363 21.7618 97.1718 21.5647 97.6943 21.418C98.2169 21.2714 98.7165 21.198 99.1932 21.198C100.11 21.198 100.788 21.418 101.228 21.8581C101.668 22.289 101.888 22.9674 101.888 23.8933V28.0324H100.582V26.9186C100.417 27.3036 100.16 27.6061 99.812 27.8262C99.4637 28.0462 99.0465 28.1562 98.5607 28.1562ZM98.8357 27.1661C99.3307 27.1661 99.7433 26.9919 100.073 26.6435C100.403 26.2952 100.568 25.8551 100.568 25.3234V24.9521H100.115C99.4453 24.9521 98.9182 24.9842 98.5332 25.0484C98.1573 25.1126 97.8868 25.2226 97.7218 25.3784C97.566 25.5251 97.488 25.7314 97.488 25.9972C97.488 26.3456 97.6072 26.6298 97.8456 26.8498C98.0839 27.0607 98.414 27.1661 98.8357 27.1661ZM106.29 28.1562C105.74 28.1562 105.227 28.0874 104.75 27.9499C104.274 27.8032 103.875 27.6016 103.554 27.3449L103.953 26.4098C104.292 26.6481 104.663 26.8315 105.067 26.9598C105.479 27.0882 105.892 27.1523 106.304 27.1523C106.79 27.1523 107.157 27.0653 107.404 26.8911C107.652 26.7169 107.776 26.4831 107.776 26.1898C107.776 25.9514 107.693 25.768 107.528 25.6397C107.363 25.5022 107.115 25.3968 106.785 25.3234L105.479 25.0621C104.324 24.8238 103.746 24.2279 103.746 23.2745C103.746 22.6419 103.999 22.1377 104.503 21.7618C105.007 21.3859 105.667 21.198 106.483 21.198C106.95 21.198 107.395 21.2668 107.817 21.4043C108.248 21.5418 108.605 21.7481 108.889 22.0231L108.491 22.9582C108.216 22.7198 107.899 22.5365 107.542 22.4081C107.184 22.2798 106.831 22.2156 106.483 22.2156C106.006 22.2156 105.644 22.3073 105.397 22.4906C105.149 22.6648 105.025 22.9032 105.025 23.2057C105.025 23.6641 105.328 23.9574 105.933 24.0858L107.239 24.3471C107.835 24.4662 108.284 24.6679 108.587 24.9521C108.899 25.2363 109.054 25.6214 109.054 26.1072C109.054 26.749 108.802 27.2532 108.298 27.6199C107.794 27.9774 107.125 28.1562 106.29 28.1562ZM110.737 28.0324V18.3377H112.126V22.3669C112.355 21.9818 112.662 21.6931 113.047 21.5005C113.442 21.2989 113.882 21.198 114.368 21.198C115.954 21.198 116.747 22.0964 116.747 23.8933V28.0324H115.358V23.9758C115.358 23.3982 115.243 22.9765 115.014 22.7107C114.794 22.4448 114.446 22.3119 113.969 22.3119C113.41 22.3119 112.96 22.4906 112.621 22.8482C112.291 23.1965 112.126 23.6595 112.126 24.2371V28.0324H110.737ZM122.401 28.1562C121.887 28.1562 121.434 28.0416 121.039 27.8124C120.645 27.5832 120.352 27.2761 120.159 26.8911V28.0324H118.798V18.3377H120.187V22.4081C120.388 22.0414 120.682 21.7481 121.067 21.528C121.461 21.308 121.906 21.198 122.401 21.198C122.997 21.198 123.515 21.3401 123.955 21.6243C124.404 21.9085 124.748 22.3119 124.986 22.8344C125.234 23.3478 125.357 23.962 125.357 24.6771C125.357 25.3922 125.234 26.011 124.986 26.5335C124.748 27.0561 124.404 27.4595 123.955 27.7437C123.515 28.0187 122.997 28.1562 122.401 28.1562ZM122.057 27.0836C122.635 27.0836 123.093 26.8773 123.432 26.4648C123.78 26.0522 123.955 25.4563 123.955 24.6771C123.955 23.8979 123.78 23.3066 123.432 22.9032C123.093 22.4906 122.635 22.2844 122.057 22.2844C121.479 22.2844 121.016 22.4906 120.668 22.9032C120.329 23.3066 120.159 23.8979 120.159 24.6771C120.159 25.4563 120.329 26.0522 120.668 26.4648C121.016 26.8773 121.479 27.0836 122.057 27.0836ZM129.975 28.1562C129.297 28.1562 128.71 28.0141 128.215 27.7299C127.72 27.4457 127.335 27.0469 127.06 26.5335C126.794 26.011 126.661 25.3922 126.661 24.6771C126.661 23.962 126.794 23.3478 127.06 22.8344C127.335 22.3119 127.72 21.9085 128.215 21.6243C128.71 21.3401 129.297 21.198 129.975 21.198C130.635 21.198 131.213 21.3401 131.708 21.6243C132.203 21.9085 132.588 22.3119 132.863 22.8344C133.138 23.3478 133.276 23.962 133.276 24.6771C133.276 25.3922 133.138 26.011 132.863 26.5335C132.588 27.0469 132.203 27.4457 131.708 27.7299C131.213 28.0141 130.635 28.1562 129.975 28.1562ZM129.975 27.0836C130.544 27.0836 131.002 26.8773 131.35 26.4648C131.699 26.0522 131.873 25.4563 131.873 24.6771C131.873 23.8979 131.699 23.3066 131.35 22.9032C131.002 22.4906 130.544 22.2844 129.975 22.2844C129.398 22.2844 128.935 22.4906 128.586 22.9032C128.238 23.3066 128.064 23.8979 128.064 24.6771C128.064 25.4563 128.238 26.0522 128.586 26.4648C128.935 26.8773 129.398 27.0836 129.975 27.0836ZM137.118 28.1562C136.651 28.1562 136.233 28.0645 135.867 27.8812C135.5 27.6978 135.207 27.4503 134.987 27.1386C134.776 26.8269 134.67 26.4739 134.67 26.0797C134.67 25.5847 134.794 25.1951 135.042 24.9109C135.298 24.6267 135.716 24.4204 136.293 24.2921C136.88 24.1637 137.668 24.0995 138.658 24.0995H139.126V23.742C139.126 23.2195 139.016 22.8436 138.796 22.6144C138.576 22.3852 138.214 22.2706 137.709 22.2706C137.324 22.2706 136.939 22.3302 136.554 22.4494C136.169 22.5594 135.775 22.7382 135.372 22.9857L134.945 22.0093C135.294 21.7618 135.729 21.5647 136.252 21.418C136.774 21.2714 137.274 21.198 137.751 21.198C138.667 21.198 139.346 21.418 139.786 21.8581C140.226 22.289 140.446 22.9674 140.446 23.8933V28.0324H139.14V26.9186C138.975 27.3036 138.718 27.6061 138.37 27.8262C138.021 28.0462 137.604 28.1562 137.118 28.1562ZM137.393 27.1661C137.888 27.1661 138.301 26.9919 138.631 26.6435C138.961 26.2952 139.126 25.8551 139.126 25.3234V24.9521H138.672C138.003 24.9521 137.476 24.9842 137.091 25.0484C136.715 25.1126 136.444 25.2226 136.279 25.3784C136.123 25.5251 136.046 25.7314 136.046 25.9972C136.046 26.3456 136.165 26.6298 136.403 26.8498C136.641 27.0607 136.971 27.1661 137.393 27.1661ZM142.496 28.0324V21.3218H143.844V22.5181C144.192 21.7206 144.917 21.2759 146.017 21.1843L146.471 21.1568L146.567 22.3394L145.728 22.4219C144.509 22.5411 143.899 23.169 143.899 24.3058V28.0324H142.496ZM150.228 28.1562C149.641 28.1562 149.123 28.0187 148.674 27.7437C148.234 27.4595 147.89 27.0561 147.642 26.5335C147.395 26.011 147.271 25.3922 147.271 24.6771C147.271 23.962 147.395 23.3478 147.642 22.8344C147.89 22.3119 148.234 21.9085 148.674 21.6243C149.114 21.3401 149.632 21.198 150.228 21.198C150.732 21.198 151.181 21.308 151.575 21.528C151.969 21.7481 152.263 22.046 152.455 22.4219V18.3377H153.844V28.0324H152.483V26.8636C152.29 27.2669 151.992 27.5832 151.589 27.8124C151.195 28.0416 150.741 28.1562 150.228 28.1562ZM150.585 27.0836C151.154 27.0836 151.612 26.8773 151.96 26.4648C152.309 26.0522 152.483 25.4563 152.483 24.6771C152.483 23.8979 152.309 23.3066 151.96 22.9032C151.612 22.4906 151.154 22.2844 150.585 22.2844C150.008 22.2844 149.545 22.4906 149.196 22.9032C148.848 23.3066 148.674 23.8979 148.674 24.6771C148.674 25.4563 148.848 26.0522 149.196 26.4648C149.545 26.8773 150.008 27.0836 150.585 27.0836Z" fill="#253863"/>
<defs>
<clipPath id="clip0_159_19296">
<rect width="31.8" height="30.9405" fill="white" transform="translate(0.5)"/>
</clipPath>
<clipPath id="clip1_159_19296">
<rect width="115.168" height="13.7514" fill="white" transform="translate(39.1757)"/>
</clipPath>
</defs>
</svg>
